# xmcd
#
# Track frame offsets: 
#        150
#        19367
#        36579
#        53771
#        67767
#        93786
#        112823
#        130206
#        148453
#        162666
#        179590
#        196909
#
# Disc length: 2857 seconds
#
# Revision: 0
# Processed by: cddbd v1.5.2PL0 Copyright (c) Steve Scherf et al.
# Submitted via: ExactAudioCopy v0.95b3
#
DISCID=ad0b270c
DTITLE=Ponsak - Mi Mia Dek
DYEAR=1900
DGENRE=Folk
TTITLE0=Mi mia dek
TTITLE1=Num wai tawng
TTITLE2=Rak gan ti jai
TTITLE3=Mae pak pawt duean pet
TTITLE4=Namta lai nai nganbun
TTITLE5=Hak nawng khue gao
TTITLE6=Rak sawn gawn taeng
TTITLE7=Hoi taan kaang tiang
TTITLE8=Sao ki due
TTITLE9=Huean sam nam si
TTITLE10=Rak mai luem
TTITLE11=Khon rak mia
EXTD=
EXTT0=
EXTT1=
EXTT2=
EXTT3=
EXTT4=
EXTT5=
EXTT6=
EXTT7=
EXTT8=
EXTT9=
EXTT10=
EXTT11=
PLAYORDER=
